<mxfile host="app.diagrams.net" modified="2023-11-05T15:47:22.297Z" agent="Mozilla/5.0 (Windows NT 10.0; Win64; x64) AppleWebKit/537.36 (KHTML, like Gecko) Chrome/118.0.0.0 Safari/537.36" etag="D-gzLSfaT9id-IFo7xuS" version="22.0.8" type="device">
  <diagram id="C5RBs43oDa-KdzZeNtuy" name="Page-1">
    <mxGraphModel dx="1434" dy="758" grid="1" gridSize="10" guides="1" tooltips="1" connect="1" arrows="1" fold="1" page="1" pageScale="1" pageWidth="827" pageHeight="1169" math="0" shadow="0">
      <root>
        <mxCell id="WIyWlLk6GJQsqaUBKTNV-0" />
        <mxCell id="WIyWlLk6GJQsqaUBKTNV-1" parent="WIyWlLk6GJQsqaUBKTNV-0" />
        <mxCell id="WIyWlLk6GJQsqaUBKTNV-2" value="" style="rounded=0;html=1;jettySize=auto;orthogonalLoop=1;fontSize=11;endArrow=block;endFill=0;endSize=8;strokeWidth=1;shadow=0;labelBackgroundColor=none;edgeStyle=orthogonalEdgeStyle;" parent="WIyWlLk6GJQsqaUBKTNV-1" source="WIyWlLk6GJQsqaUBKTNV-3" target="WIyWlLk6GJQsqaUBKTNV-6" edge="1">
          <mxGeometry relative="1" as="geometry" />
        </mxCell>
        <mxCell id="WIyWlLk6GJQsqaUBKTNV-3" value="Irish Quiz" style="rounded=1;whiteSpace=wrap;html=1;fontSize=12;glass=0;strokeWidth=1;shadow=0;" parent="WIyWlLk6GJQsqaUBKTNV-1" vertex="1">
          <mxGeometry x="40" y="80" width="120" height="40" as="geometry" />
        </mxCell>
        <mxCell id="WIyWlLk6GJQsqaUBKTNV-4" value="Yes" style="rounded=0;html=1;jettySize=auto;orthogonalLoop=1;fontSize=11;endArrow=block;endFill=0;endSize=8;strokeWidth=1;shadow=0;labelBackgroundColor=none;edgeStyle=orthogonalEdgeStyle;" parent="WIyWlLk6GJQsqaUBKTNV-1" source="WIyWlLk6GJQsqaUBKTNV-6" target="WIyWlLk6GJQsqaUBKTNV-10" edge="1">
          <mxGeometry y="20" relative="1" as="geometry">
            <mxPoint as="offset" />
          </mxGeometry>
        </mxCell>
        <mxCell id="WIyWlLk6GJQsqaUBKTNV-5" value="No" style="edgeStyle=orthogonalEdgeStyle;rounded=0;html=1;jettySize=auto;orthogonalLoop=1;fontSize=11;endArrow=block;endFill=0;endSize=8;strokeWidth=1;shadow=0;labelBackgroundColor=none;" parent="WIyWlLk6GJQsqaUBKTNV-1" source="WIyWlLk6GJQsqaUBKTNV-6" target="WIyWlLk6GJQsqaUBKTNV-7" edge="1">
          <mxGeometry y="10" relative="1" as="geometry">
            <mxPoint as="offset" />
          </mxGeometry>
        </mxCell>
        <mxCell id="WIyWlLk6GJQsqaUBKTNV-6" value="&lt;p style=&quot;line-height: 130%;&quot;&gt;&lt;font style=&quot;&quot;&gt;&lt;span style=&quot;font-size: 10px;&quot;&gt;Do you want to play?&amp;nbsp;&lt;/span&gt;&lt;br style=&quot;&quot;&gt;&lt;font style=&quot;font-size: 8px;&quot;&gt;Y/N&lt;/font&gt;&lt;/font&gt;&lt;/p&gt;" style="rhombus;whiteSpace=wrap;html=1;shadow=0;fontFamily=Helvetica;fontSize=8;align=center;strokeWidth=1;spacing=6;spacingTop=-4;" parent="WIyWlLk6GJQsqaUBKTNV-1" vertex="1">
          <mxGeometry x="50" y="170" width="100" height="80" as="geometry" />
        </mxCell>
        <mxCell id="WIyWlLk6GJQsqaUBKTNV-7" value="Exits" style="rounded=1;whiteSpace=wrap;html=1;fontSize=12;glass=0;strokeWidth=1;shadow=0;" parent="WIyWlLk6GJQsqaUBKTNV-1" vertex="1">
          <mxGeometry x="200" y="190" width="120" height="40" as="geometry" />
        </mxCell>
        <mxCell id="WIyWlLk6GJQsqaUBKTNV-8" value="Wrong" style="rounded=0;html=1;jettySize=auto;orthogonalLoop=1;fontSize=11;endArrow=block;endFill=0;endSize=8;strokeWidth=1;shadow=0;labelBackgroundColor=none;edgeStyle=orthogonalEdgeStyle;" parent="WIyWlLk6GJQsqaUBKTNV-1" source="WIyWlLk6GJQsqaUBKTNV-10" target="WIyWlLk6GJQsqaUBKTNV-11" edge="1">
          <mxGeometry y="-20" relative="1" as="geometry">
            <mxPoint as="offset" />
          </mxGeometry>
        </mxCell>
        <mxCell id="WIyWlLk6GJQsqaUBKTNV-9" value="Correct" style="edgeStyle=orthogonalEdgeStyle;rounded=0;html=1;jettySize=auto;orthogonalLoop=1;fontSize=11;endArrow=block;endFill=0;endSize=8;strokeWidth=1;shadow=0;labelBackgroundColor=none;" parent="WIyWlLk6GJQsqaUBKTNV-1" source="WIyWlLk6GJQsqaUBKTNV-10" target="WIyWlLk6GJQsqaUBKTNV-12" edge="1">
          <mxGeometry x="0.1111" y="20" relative="1" as="geometry">
            <mxPoint as="offset" />
          </mxGeometry>
        </mxCell>
        <mxCell id="WIyWlLk6GJQsqaUBKTNV-10" value="Question 1" style="rhombus;whiteSpace=wrap;html=1;shadow=0;fontFamily=Helvetica;fontSize=12;align=center;strokeWidth=1;spacing=6;spacingTop=-4;" parent="WIyWlLk6GJQsqaUBKTNV-1" vertex="1">
          <mxGeometry x="50" y="290" width="100" height="80" as="geometry" />
        </mxCell>
        <mxCell id="WIyWlLk6GJQsqaUBKTNV-11" value="Incorrect" style="rounded=1;whiteSpace=wrap;html=1;fontSize=12;glass=0;strokeWidth=1;shadow=0;" parent="WIyWlLk6GJQsqaUBKTNV-1" vertex="1">
          <mxGeometry x="210" y="350" width="120" height="40" as="geometry" />
        </mxCell>
        <mxCell id="WIyWlLk6GJQsqaUBKTNV-12" value="Congrats" style="rounded=1;whiteSpace=wrap;html=1;fontSize=12;glass=0;strokeWidth=1;shadow=0;" parent="WIyWlLk6GJQsqaUBKTNV-1" vertex="1">
          <mxGeometry x="210" y="280" width="120" height="40" as="geometry" />
        </mxCell>
        <mxCell id="ALJSQyKVXg3JzVEoBNg6-1" value="Next" style="rounded=0;html=1;jettySize=auto;orthogonalLoop=1;fontSize=11;endArrow=block;endFill=0;endSize=8;strokeWidth=1;shadow=0;labelBackgroundColor=none;edgeStyle=orthogonalEdgeStyle;" parent="WIyWlLk6GJQsqaUBKTNV-1" target="ALJSQyKVXg3JzVEoBNg6-4" edge="1">
          <mxGeometry y="20" relative="1" as="geometry">
            <mxPoint as="offset" />
            <mxPoint x="100" y="370" as="sourcePoint" />
          </mxGeometry>
        </mxCell>
        <mxCell id="ALJSQyKVXg3JzVEoBNg6-2" value="Wrong" style="rounded=0;html=1;jettySize=auto;orthogonalLoop=1;fontSize=11;endArrow=block;endFill=0;endSize=8;strokeWidth=1;shadow=0;labelBackgroundColor=none;edgeStyle=orthogonalEdgeStyle;" parent="WIyWlLk6GJQsqaUBKTNV-1" source="ALJSQyKVXg3JzVEoBNg6-4" target="ALJSQyKVXg3JzVEoBNg6-5" edge="1">
          <mxGeometry y="-20" relative="1" as="geometry">
            <mxPoint as="offset" />
          </mxGeometry>
        </mxCell>
        <mxCell id="ALJSQyKVXg3JzVEoBNg6-3" value="Correct" style="edgeStyle=orthogonalEdgeStyle;rounded=0;html=1;jettySize=auto;orthogonalLoop=1;fontSize=11;endArrow=block;endFill=0;endSize=8;strokeWidth=1;shadow=0;labelBackgroundColor=none;" parent="WIyWlLk6GJQsqaUBKTNV-1" source="ALJSQyKVXg3JzVEoBNg6-4" target="ALJSQyKVXg3JzVEoBNg6-6" edge="1">
          <mxGeometry x="0.1111" y="20" relative="1" as="geometry">
            <mxPoint as="offset" />
          </mxGeometry>
        </mxCell>
        <mxCell id="ALJSQyKVXg3JzVEoBNg6-4" value="Question 2" style="rhombus;whiteSpace=wrap;html=1;shadow=0;fontFamily=Helvetica;fontSize=12;align=center;strokeWidth=1;spacing=6;spacingTop=-4;" parent="WIyWlLk6GJQsqaUBKTNV-1" vertex="1">
          <mxGeometry x="50" y="410" width="100" height="80" as="geometry" />
        </mxCell>
        <mxCell id="ALJSQyKVXg3JzVEoBNg6-5" value="Incorrect" style="rounded=1;whiteSpace=wrap;html=1;fontSize=12;glass=0;strokeWidth=1;shadow=0;" parent="WIyWlLk6GJQsqaUBKTNV-1" vertex="1">
          <mxGeometry x="210" y="470" width="120" height="40" as="geometry" />
        </mxCell>
        <mxCell id="ALJSQyKVXg3JzVEoBNg6-6" value="Congrats" style="rounded=1;whiteSpace=wrap;html=1;fontSize=12;glass=0;strokeWidth=1;shadow=0;" parent="WIyWlLk6GJQsqaUBKTNV-1" vertex="1">
          <mxGeometry x="210" y="400" width="120" height="40" as="geometry" />
        </mxCell>
        <mxCell id="ALJSQyKVXg3JzVEoBNg6-7" value="Next" style="rounded=0;html=1;jettySize=auto;orthogonalLoop=1;fontSize=11;endArrow=block;endFill=0;endSize=8;strokeWidth=1;shadow=0;labelBackgroundColor=none;edgeStyle=orthogonalEdgeStyle;" parent="WIyWlLk6GJQsqaUBKTNV-1" target="ALJSQyKVXg3JzVEoBNg6-10" edge="1">
          <mxGeometry y="20" relative="1" as="geometry">
            <mxPoint as="offset" />
            <mxPoint x="100" y="490" as="sourcePoint" />
          </mxGeometry>
        </mxCell>
        <mxCell id="ALJSQyKVXg3JzVEoBNg6-8" value="Wrong" style="rounded=0;html=1;jettySize=auto;orthogonalLoop=1;fontSize=11;endArrow=block;endFill=0;endSize=8;strokeWidth=1;shadow=0;labelBackgroundColor=none;edgeStyle=orthogonalEdgeStyle;" parent="WIyWlLk6GJQsqaUBKTNV-1" source="ALJSQyKVXg3JzVEoBNg6-10" target="ALJSQyKVXg3JzVEoBNg6-11" edge="1">
          <mxGeometry y="-20" relative="1" as="geometry">
            <mxPoint as="offset" />
          </mxGeometry>
        </mxCell>
        <mxCell id="ALJSQyKVXg3JzVEoBNg6-9" value="Correct" style="edgeStyle=orthogonalEdgeStyle;rounded=0;html=1;jettySize=auto;orthogonalLoop=1;fontSize=11;endArrow=block;endFill=0;endSize=8;strokeWidth=1;shadow=0;labelBackgroundColor=none;" parent="WIyWlLk6GJQsqaUBKTNV-1" source="ALJSQyKVXg3JzVEoBNg6-10" target="ALJSQyKVXg3JzVEoBNg6-12" edge="1">
          <mxGeometry x="0.1111" y="20" relative="1" as="geometry">
            <mxPoint as="offset" />
          </mxGeometry>
        </mxCell>
        <mxCell id="ALJSQyKVXg3JzVEoBNg6-10" value="Question 3" style="rhombus;whiteSpace=wrap;html=1;shadow=0;fontFamily=Helvetica;fontSize=12;align=center;strokeWidth=1;spacing=6;spacingTop=-4;" parent="WIyWlLk6GJQsqaUBKTNV-1" vertex="1">
          <mxGeometry x="50" y="530" width="100" height="80" as="geometry" />
        </mxCell>
        <mxCell id="ALJSQyKVXg3JzVEoBNg6-11" value="Incorrect" style="rounded=1;whiteSpace=wrap;html=1;fontSize=12;glass=0;strokeWidth=1;shadow=0;" parent="WIyWlLk6GJQsqaUBKTNV-1" vertex="1">
          <mxGeometry x="210" y="590" width="120" height="40" as="geometry" />
        </mxCell>
        <mxCell id="ALJSQyKVXg3JzVEoBNg6-12" value="Congrats" style="rounded=1;whiteSpace=wrap;html=1;fontSize=12;glass=0;strokeWidth=1;shadow=0;" parent="WIyWlLk6GJQsqaUBKTNV-1" vertex="1">
          <mxGeometry x="210" y="520" width="120" height="40" as="geometry" />
        </mxCell>
        <mxCell id="ALJSQyKVXg3JzVEoBNg6-13" value="Next" style="rounded=0;html=1;jettySize=auto;orthogonalLoop=1;fontSize=11;endArrow=block;endFill=0;endSize=8;strokeWidth=1;shadow=0;labelBackgroundColor=none;edgeStyle=orthogonalEdgeStyle;" parent="WIyWlLk6GJQsqaUBKTNV-1" target="ALJSQyKVXg3JzVEoBNg6-16" edge="1">
          <mxGeometry y="20" relative="1" as="geometry">
            <mxPoint as="offset" />
            <mxPoint x="100" y="610" as="sourcePoint" />
          </mxGeometry>
        </mxCell>
        <mxCell id="ALJSQyKVXg3JzVEoBNg6-14" value="Wrong" style="rounded=0;html=1;jettySize=auto;orthogonalLoop=1;fontSize=11;endArrow=block;endFill=0;endSize=8;strokeWidth=1;shadow=0;labelBackgroundColor=none;edgeStyle=orthogonalEdgeStyle;" parent="WIyWlLk6GJQsqaUBKTNV-1" source="ALJSQyKVXg3JzVEoBNg6-16" target="ALJSQyKVXg3JzVEoBNg6-17" edge="1">
          <mxGeometry y="-20" relative="1" as="geometry">
            <mxPoint as="offset" />
          </mxGeometry>
        </mxCell>
        <mxCell id="ALJSQyKVXg3JzVEoBNg6-15" value="Correct" style="edgeStyle=orthogonalEdgeStyle;rounded=0;html=1;jettySize=auto;orthogonalLoop=1;fontSize=11;endArrow=block;endFill=0;endSize=8;strokeWidth=1;shadow=0;labelBackgroundColor=none;" parent="WIyWlLk6GJQsqaUBKTNV-1" source="ALJSQyKVXg3JzVEoBNg6-16" target="ALJSQyKVXg3JzVEoBNg6-18" edge="1">
          <mxGeometry x="0.1111" y="20" relative="1" as="geometry">
            <mxPoint as="offset" />
          </mxGeometry>
        </mxCell>
        <mxCell id="ALJSQyKVXg3JzVEoBNg6-16" value="Question 4" style="rhombus;whiteSpace=wrap;html=1;shadow=0;fontFamily=Helvetica;fontSize=12;align=center;strokeWidth=1;spacing=6;spacingTop=-4;" parent="WIyWlLk6GJQsqaUBKTNV-1" vertex="1">
          <mxGeometry x="50" y="650" width="100" height="80" as="geometry" />
        </mxCell>
        <mxCell id="ALJSQyKVXg3JzVEoBNg6-17" value="Incorrect" style="rounded=1;whiteSpace=wrap;html=1;fontSize=12;glass=0;strokeWidth=1;shadow=0;" parent="WIyWlLk6GJQsqaUBKTNV-1" vertex="1">
          <mxGeometry x="210" y="710" width="120" height="40" as="geometry" />
        </mxCell>
        <mxCell id="ALJSQyKVXg3JzVEoBNg6-18" value="Congrats" style="rounded=1;whiteSpace=wrap;html=1;fontSize=12;glass=0;strokeWidth=1;shadow=0;" parent="WIyWlLk6GJQsqaUBKTNV-1" vertex="1">
          <mxGeometry x="210" y="640" width="120" height="40" as="geometry" />
        </mxCell>
        <mxCell id="ALJSQyKVXg3JzVEoBNg6-19" value="Next" style="rounded=0;html=1;jettySize=auto;orthogonalLoop=1;fontSize=11;endArrow=block;endFill=0;endSize=8;strokeWidth=1;shadow=0;labelBackgroundColor=none;edgeStyle=orthogonalEdgeStyle;" parent="WIyWlLk6GJQsqaUBKTNV-1" target="ALJSQyKVXg3JzVEoBNg6-22" edge="1">
          <mxGeometry y="20" relative="1" as="geometry">
            <mxPoint as="offset" />
            <mxPoint x="100" y="730" as="sourcePoint" />
          </mxGeometry>
        </mxCell>
        <mxCell id="ALJSQyKVXg3JzVEoBNg6-20" value="Wrong" style="rounded=0;html=1;jettySize=auto;orthogonalLoop=1;fontSize=11;endArrow=block;endFill=0;endSize=8;strokeWidth=1;shadow=0;labelBackgroundColor=none;edgeStyle=orthogonalEdgeStyle;" parent="WIyWlLk6GJQsqaUBKTNV-1" source="ALJSQyKVXg3JzVEoBNg6-22" target="ALJSQyKVXg3JzVEoBNg6-23" edge="1">
          <mxGeometry y="-20" relative="1" as="geometry">
            <mxPoint as="offset" />
          </mxGeometry>
        </mxCell>
        <mxCell id="ALJSQyKVXg3JzVEoBNg6-21" value="Correct" style="edgeStyle=orthogonalEdgeStyle;rounded=0;html=1;jettySize=auto;orthogonalLoop=1;fontSize=11;endArrow=block;endFill=0;endSize=8;strokeWidth=1;shadow=0;labelBackgroundColor=none;" parent="WIyWlLk6GJQsqaUBKTNV-1" source="ALJSQyKVXg3JzVEoBNg6-22" target="ALJSQyKVXg3JzVEoBNg6-24" edge="1">
          <mxGeometry x="0.1111" y="20" relative="1" as="geometry">
            <mxPoint as="offset" />
          </mxGeometry>
        </mxCell>
        <mxCell id="ALJSQyKVXg3JzVEoBNg6-22" value="Question 5" style="rhombus;whiteSpace=wrap;html=1;shadow=0;fontFamily=Helvetica;fontSize=12;align=center;strokeWidth=1;spacing=6;spacingTop=-4;" parent="WIyWlLk6GJQsqaUBKTNV-1" vertex="1">
          <mxGeometry x="50" y="770" width="100" height="80" as="geometry" />
        </mxCell>
        <mxCell id="ALJSQyKVXg3JzVEoBNg6-23" value="Incorrect" style="rounded=1;whiteSpace=wrap;html=1;fontSize=12;glass=0;strokeWidth=1;shadow=0;" parent="WIyWlLk6GJQsqaUBKTNV-1" vertex="1">
          <mxGeometry x="210" y="830" width="120" height="40" as="geometry" />
        </mxCell>
        <mxCell id="ALJSQyKVXg3JzVEoBNg6-24" value="Congrats" style="rounded=1;whiteSpace=wrap;html=1;fontSize=12;glass=0;strokeWidth=1;shadow=0;" parent="WIyWlLk6GJQsqaUBKTNV-1" vertex="1">
          <mxGeometry x="210" y="760" width="120" height="40" as="geometry" />
        </mxCell>
        <mxCell id="ALJSQyKVXg3JzVEoBNg6-25" value="Next" style="rounded=0;html=1;jettySize=auto;orthogonalLoop=1;fontSize=11;endArrow=block;endFill=0;endSize=8;strokeWidth=1;shadow=0;labelBackgroundColor=none;edgeStyle=orthogonalEdgeStyle;" parent="WIyWlLk6GJQsqaUBKTNV-1" target="ALJSQyKVXg3JzVEoBNg6-28" edge="1">
          <mxGeometry y="20" relative="1" as="geometry">
            <mxPoint as="offset" />
            <mxPoint x="100" y="850" as="sourcePoint" />
          </mxGeometry>
        </mxCell>
        <mxCell id="ALJSQyKVXg3JzVEoBNg6-26" value="Wrong" style="rounded=0;html=1;jettySize=auto;orthogonalLoop=1;fontSize=11;endArrow=block;endFill=0;endSize=8;strokeWidth=1;shadow=0;labelBackgroundColor=none;edgeStyle=orthogonalEdgeStyle;" parent="WIyWlLk6GJQsqaUBKTNV-1" source="ALJSQyKVXg3JzVEoBNg6-28" target="ALJSQyKVXg3JzVEoBNg6-29" edge="1">
          <mxGeometry y="-20" relative="1" as="geometry">
            <mxPoint as="offset" />
          </mxGeometry>
        </mxCell>
        <mxCell id="ALJSQyKVXg3JzVEoBNg6-27" value="Correct" style="edgeStyle=orthogonalEdgeStyle;rounded=0;html=1;jettySize=auto;orthogonalLoop=1;fontSize=11;endArrow=block;endFill=0;endSize=8;strokeWidth=1;shadow=0;labelBackgroundColor=none;" parent="WIyWlLk6GJQsqaUBKTNV-1" source="ALJSQyKVXg3JzVEoBNg6-28" target="ALJSQyKVXg3JzVEoBNg6-30" edge="1">
          <mxGeometry x="0.1111" y="20" relative="1" as="geometry">
            <mxPoint as="offset" />
          </mxGeometry>
        </mxCell>
        <mxCell id="ALJSQyKVXg3JzVEoBNg6-28" value="Question 6" style="rhombus;whiteSpace=wrap;html=1;shadow=0;fontFamily=Helvetica;fontSize=12;align=center;strokeWidth=1;spacing=6;spacingTop=-4;" parent="WIyWlLk6GJQsqaUBKTNV-1" vertex="1">
          <mxGeometry x="50" y="890" width="100" height="80" as="geometry" />
        </mxCell>
        <mxCell id="ALJSQyKVXg3JzVEoBNg6-29" value="Incorrect" style="rounded=1;whiteSpace=wrap;html=1;fontSize=12;glass=0;strokeWidth=1;shadow=0;" parent="WIyWlLk6GJQsqaUBKTNV-1" vertex="1">
          <mxGeometry x="210" y="950" width="120" height="40" as="geometry" />
        </mxCell>
        <mxCell id="ALJSQyKVXg3JzVEoBNg6-30" value="Congrats" style="rounded=1;whiteSpace=wrap;html=1;fontSize=12;glass=0;strokeWidth=1;shadow=0;" parent="WIyWlLk6GJQsqaUBKTNV-1" vertex="1">
          <mxGeometry x="210" y="880" width="120" height="40" as="geometry" />
        </mxCell>
        <mxCell id="ALJSQyKVXg3JzVEoBNg6-31" value="Next" style="rounded=0;html=1;jettySize=auto;orthogonalLoop=1;fontSize=11;endArrow=block;endFill=0;endSize=8;strokeWidth=1;shadow=0;labelBackgroundColor=none;edgeStyle=orthogonalEdgeStyle;" parent="WIyWlLk6GJQsqaUBKTNV-1" target="ALJSQyKVXg3JzVEoBNg6-34" edge="1">
          <mxGeometry y="20" relative="1" as="geometry">
            <mxPoint as="offset" />
            <mxPoint x="100" y="970" as="sourcePoint" />
          </mxGeometry>
        </mxCell>
        <mxCell id="ALJSQyKVXg3JzVEoBNg6-32" value="Wrong" style="rounded=0;html=1;jettySize=auto;orthogonalLoop=1;fontSize=11;endArrow=block;endFill=0;endSize=8;strokeWidth=1;shadow=0;labelBackgroundColor=none;edgeStyle=orthogonalEdgeStyle;" parent="WIyWlLk6GJQsqaUBKTNV-1" source="ALJSQyKVXg3JzVEoBNg6-34" target="ALJSQyKVXg3JzVEoBNg6-35" edge="1">
          <mxGeometry y="-20" relative="1" as="geometry">
            <mxPoint as="offset" />
          </mxGeometry>
        </mxCell>
        <mxCell id="ALJSQyKVXg3JzVEoBNg6-33" value="Correct" style="edgeStyle=orthogonalEdgeStyle;rounded=0;html=1;jettySize=auto;orthogonalLoop=1;fontSize=11;endArrow=block;endFill=0;endSize=8;strokeWidth=1;shadow=0;labelBackgroundColor=none;" parent="WIyWlLk6GJQsqaUBKTNV-1" source="ALJSQyKVXg3JzVEoBNg6-34" target="ALJSQyKVXg3JzVEoBNg6-36" edge="1">
          <mxGeometry x="0.1111" y="20" relative="1" as="geometry">
            <mxPoint as="offset" />
          </mxGeometry>
        </mxCell>
        <mxCell id="ALJSQyKVXg3JzVEoBNg6-34" value="Question 7" style="rhombus;whiteSpace=wrap;html=1;shadow=0;fontFamily=Helvetica;fontSize=12;align=center;strokeWidth=1;spacing=6;spacingTop=-4;" parent="WIyWlLk6GJQsqaUBKTNV-1" vertex="1">
          <mxGeometry x="50" y="1010" width="100" height="80" as="geometry" />
        </mxCell>
        <mxCell id="ALJSQyKVXg3JzVEoBNg6-35" value="Incorrect" style="rounded=1;whiteSpace=wrap;html=1;fontSize=12;glass=0;strokeWidth=1;shadow=0;" parent="WIyWlLk6GJQsqaUBKTNV-1" vertex="1">
          <mxGeometry x="210" y="1070" width="120" height="40" as="geometry" />
        </mxCell>
        <mxCell id="ALJSQyKVXg3JzVEoBNg6-36" value="Congrats" style="rounded=1;whiteSpace=wrap;html=1;fontSize=12;glass=0;strokeWidth=1;shadow=0;" parent="WIyWlLk6GJQsqaUBKTNV-1" vertex="1">
          <mxGeometry x="210" y="1000" width="120" height="40" as="geometry" />
        </mxCell>
        <mxCell id="ALJSQyKVXg3JzVEoBNg6-38" value="" style="endArrow=classic;html=1;rounded=0;exitX=0.5;exitY=1;exitDx=0;exitDy=0;" parent="WIyWlLk6GJQsqaUBKTNV-1" source="ALJSQyKVXg3JzVEoBNg6-34" edge="1">
          <mxGeometry width="50" height="50" relative="1" as="geometry">
            <mxPoint x="390" y="850" as="sourcePoint" />
            <mxPoint x="420" y="1140" as="targetPoint" />
            <Array as="points">
              <mxPoint x="100" y="1140" />
            </Array>
          </mxGeometry>
        </mxCell>
        <mxCell id="ALJSQyKVXg3JzVEoBNg6-57" value="Question 8" style="rhombus;whiteSpace=wrap;html=1;shadow=0;fontFamily=Helvetica;fontSize=12;align=center;strokeWidth=1;spacing=6;spacingTop=-4;" parent="WIyWlLk6GJQsqaUBKTNV-1" vertex="1">
          <mxGeometry x="420" y="1060" width="100" height="80" as="geometry" />
        </mxCell>
        <mxCell id="ALJSQyKVXg3JzVEoBNg6-58" value="Incorrect" style="rounded=1;whiteSpace=wrap;html=1;fontSize=12;glass=0;strokeWidth=1;shadow=0;" parent="WIyWlLk6GJQsqaUBKTNV-1" vertex="1">
          <mxGeometry x="580" y="1120" width="120" height="40" as="geometry" />
        </mxCell>
        <mxCell id="ALJSQyKVXg3JzVEoBNg6-59" value="Congrats" style="rounded=1;whiteSpace=wrap;html=1;fontSize=12;glass=0;strokeWidth=1;shadow=0;" parent="WIyWlLk6GJQsqaUBKTNV-1" vertex="1">
          <mxGeometry x="580" y="1050" width="120" height="40" as="geometry" />
        </mxCell>
        <mxCell id="ALJSQyKVXg3JzVEoBNg6-60" value="Next" style="rounded=0;html=1;jettySize=auto;orthogonalLoop=1;fontSize=11;endArrow=block;endFill=0;endSize=8;strokeWidth=1;shadow=0;labelBackgroundColor=none;edgeStyle=orthogonalEdgeStyle;" parent="WIyWlLk6GJQsqaUBKTNV-1" edge="1">
          <mxGeometry y="20" relative="1" as="geometry">
            <mxPoint as="offset" />
            <mxPoint x="469.5" y="1060" as="sourcePoint" />
            <mxPoint x="470" y="1010" as="targetPoint" />
          </mxGeometry>
        </mxCell>
        <mxCell id="XjMcyCBZsVxEl0mrH3Rq-0" value="Wrong" style="rounded=0;html=1;jettySize=auto;orthogonalLoop=1;fontSize=11;endArrow=block;endFill=0;endSize=8;strokeWidth=1;shadow=0;labelBackgroundColor=none;edgeStyle=orthogonalEdgeStyle;" parent="WIyWlLk6GJQsqaUBKTNV-1" source="XjMcyCBZsVxEl0mrH3Rq-2" target="XjMcyCBZsVxEl0mrH3Rq-3" edge="1">
          <mxGeometry y="-20" relative="1" as="geometry">
            <mxPoint as="offset" />
          </mxGeometry>
        </mxCell>
        <mxCell id="XjMcyCBZsVxEl0mrH3Rq-1" value="Correct" style="edgeStyle=orthogonalEdgeStyle;rounded=0;html=1;jettySize=auto;orthogonalLoop=1;fontSize=11;endArrow=block;endFill=0;endSize=8;strokeWidth=1;shadow=0;labelBackgroundColor=none;" parent="WIyWlLk6GJQsqaUBKTNV-1" source="XjMcyCBZsVxEl0mrH3Rq-2" target="XjMcyCBZsVxEl0mrH3Rq-4" edge="1">
          <mxGeometry x="0.1111" y="20" relative="1" as="geometry">
            <mxPoint as="offset" />
          </mxGeometry>
        </mxCell>
        <mxCell id="XjMcyCBZsVxEl0mrH3Rq-2" value="Question 9" style="rhombus;whiteSpace=wrap;html=1;shadow=0;fontFamily=Helvetica;fontSize=12;align=center;strokeWidth=1;spacing=6;spacingTop=-4;" parent="WIyWlLk6GJQsqaUBKTNV-1" vertex="1">
          <mxGeometry x="420" y="930" width="100" height="80" as="geometry" />
        </mxCell>
        <mxCell id="XjMcyCBZsVxEl0mrH3Rq-3" value="Incorrect" style="rounded=1;whiteSpace=wrap;html=1;fontSize=12;glass=0;strokeWidth=1;shadow=0;" parent="WIyWlLk6GJQsqaUBKTNV-1" vertex="1">
          <mxGeometry x="580" y="990" width="120" height="40" as="geometry" />
        </mxCell>
        <mxCell id="XjMcyCBZsVxEl0mrH3Rq-4" value="Congrats" style="rounded=1;whiteSpace=wrap;html=1;fontSize=12;glass=0;strokeWidth=1;shadow=0;" parent="WIyWlLk6GJQsqaUBKTNV-1" vertex="1">
          <mxGeometry x="580" y="920" width="120" height="40" as="geometry" />
        </mxCell>
        <mxCell id="XjMcyCBZsVxEl0mrH3Rq-5" value="Next" style="rounded=0;html=1;jettySize=auto;orthogonalLoop=1;fontSize=11;endArrow=block;endFill=0;endSize=8;strokeWidth=1;shadow=0;labelBackgroundColor=none;edgeStyle=orthogonalEdgeStyle;" parent="WIyWlLk6GJQsqaUBKTNV-1" edge="1">
          <mxGeometry y="20" relative="1" as="geometry">
            <mxPoint as="offset" />
            <mxPoint x="469.5" y="930" as="sourcePoint" />
            <mxPoint x="470" y="880" as="targetPoint" />
          </mxGeometry>
        </mxCell>
        <mxCell id="XjMcyCBZsVxEl0mrH3Rq-6" value="Wrong" style="rounded=0;html=1;jettySize=auto;orthogonalLoop=1;fontSize=11;endArrow=block;endFill=0;endSize=8;strokeWidth=1;shadow=0;labelBackgroundColor=none;edgeStyle=orthogonalEdgeStyle;" parent="WIyWlLk6GJQsqaUBKTNV-1" source="XjMcyCBZsVxEl0mrH3Rq-8" target="XjMcyCBZsVxEl0mrH3Rq-9" edge="1">
          <mxGeometry y="-20" relative="1" as="geometry">
            <mxPoint as="offset" />
          </mxGeometry>
        </mxCell>
        <mxCell id="XjMcyCBZsVxEl0mrH3Rq-7" value="Correct" style="edgeStyle=orthogonalEdgeStyle;rounded=0;html=1;jettySize=auto;orthogonalLoop=1;fontSize=11;endArrow=block;endFill=0;endSize=8;strokeWidth=1;shadow=0;labelBackgroundColor=none;" parent="WIyWlLk6GJQsqaUBKTNV-1" source="XjMcyCBZsVxEl0mrH3Rq-8" target="XjMcyCBZsVxEl0mrH3Rq-10" edge="1">
          <mxGeometry x="0.1111" y="20" relative="1" as="geometry">
            <mxPoint as="offset" />
          </mxGeometry>
        </mxCell>
        <mxCell id="XjMcyCBZsVxEl0mrH3Rq-8" value="Question 8" style="rhombus;whiteSpace=wrap;html=1;shadow=0;fontFamily=Helvetica;fontSize=12;align=center;strokeWidth=1;spacing=6;spacingTop=-4;" parent="WIyWlLk6GJQsqaUBKTNV-1" vertex="1">
          <mxGeometry x="420" y="800" width="100" height="80" as="geometry" />
        </mxCell>
        <mxCell id="XjMcyCBZsVxEl0mrH3Rq-9" value="Incorrect" style="rounded=1;whiteSpace=wrap;html=1;fontSize=12;glass=0;strokeWidth=1;shadow=0;" parent="WIyWlLk6GJQsqaUBKTNV-1" vertex="1">
          <mxGeometry x="580" y="860" width="120" height="40" as="geometry" />
        </mxCell>
        <mxCell id="XjMcyCBZsVxEl0mrH3Rq-10" value="Congrats" style="rounded=1;whiteSpace=wrap;html=1;fontSize=12;glass=0;strokeWidth=1;shadow=0;" parent="WIyWlLk6GJQsqaUBKTNV-1" vertex="1">
          <mxGeometry x="580" y="790" width="120" height="40" as="geometry" />
        </mxCell>
        <mxCell id="XjMcyCBZsVxEl0mrH3Rq-11" value="Next" style="rounded=0;html=1;jettySize=auto;orthogonalLoop=1;fontSize=11;endArrow=block;endFill=0;endSize=8;strokeWidth=1;shadow=0;labelBackgroundColor=none;edgeStyle=orthogonalEdgeStyle;" parent="WIyWlLk6GJQsqaUBKTNV-1" edge="1">
          <mxGeometry y="20" relative="1" as="geometry">
            <mxPoint as="offset" />
            <mxPoint x="469.5" y="800" as="sourcePoint" />
            <mxPoint x="470" y="750" as="targetPoint" />
          </mxGeometry>
        </mxCell>
        <mxCell id="XjMcyCBZsVxEl0mrH3Rq-12" value="Wrong" style="rounded=0;html=1;jettySize=auto;orthogonalLoop=1;fontSize=11;endArrow=block;endFill=0;endSize=8;strokeWidth=1;shadow=0;labelBackgroundColor=none;edgeStyle=orthogonalEdgeStyle;" parent="WIyWlLk6GJQsqaUBKTNV-1" source="XjMcyCBZsVxEl0mrH3Rq-14" target="XjMcyCBZsVxEl0mrH3Rq-15" edge="1">
          <mxGeometry y="-20" relative="1" as="geometry">
            <mxPoint as="offset" />
          </mxGeometry>
        </mxCell>
        <mxCell id="XjMcyCBZsVxEl0mrH3Rq-13" value="Correct" style="edgeStyle=orthogonalEdgeStyle;rounded=0;html=1;jettySize=auto;orthogonalLoop=1;fontSize=11;endArrow=block;endFill=0;endSize=8;strokeWidth=1;shadow=0;labelBackgroundColor=none;" parent="WIyWlLk6GJQsqaUBKTNV-1" source="XjMcyCBZsVxEl0mrH3Rq-14" target="XjMcyCBZsVxEl0mrH3Rq-16" edge="1">
          <mxGeometry x="0.1111" y="20" relative="1" as="geometry">
            <mxPoint as="offset" />
          </mxGeometry>
        </mxCell>
        <mxCell id="XjMcyCBZsVxEl0mrH3Rq-14" value="Question 9" style="rhombus;whiteSpace=wrap;html=1;shadow=0;fontFamily=Helvetica;fontSize=12;align=center;strokeWidth=1;spacing=6;spacingTop=-4;" parent="WIyWlLk6GJQsqaUBKTNV-1" vertex="1">
          <mxGeometry x="420" y="670" width="100" height="80" as="geometry" />
        </mxCell>
        <mxCell id="XjMcyCBZsVxEl0mrH3Rq-15" value="Incorrect" style="rounded=1;whiteSpace=wrap;html=1;fontSize=12;glass=0;strokeWidth=1;shadow=0;" parent="WIyWlLk6GJQsqaUBKTNV-1" vertex="1">
          <mxGeometry x="580" y="730" width="120" height="40" as="geometry" />
        </mxCell>
        <mxCell id="XjMcyCBZsVxEl0mrH3Rq-16" value="Congrats" style="rounded=1;whiteSpace=wrap;html=1;fontSize=12;glass=0;strokeWidth=1;shadow=0;" parent="WIyWlLk6GJQsqaUBKTNV-1" vertex="1">
          <mxGeometry x="580" y="660" width="120" height="40" as="geometry" />
        </mxCell>
        <mxCell id="XjMcyCBZsVxEl0mrH3Rq-17" value="Next" style="rounded=0;html=1;jettySize=auto;orthogonalLoop=1;fontSize=11;endArrow=block;endFill=0;endSize=8;strokeWidth=1;shadow=0;labelBackgroundColor=none;edgeStyle=orthogonalEdgeStyle;" parent="WIyWlLk6GJQsqaUBKTNV-1" edge="1">
          <mxGeometry y="20" relative="1" as="geometry">
            <mxPoint as="offset" />
            <mxPoint x="469.5" y="670" as="sourcePoint" />
            <mxPoint x="470" y="620" as="targetPoint" />
          </mxGeometry>
        </mxCell>
        <mxCell id="XjMcyCBZsVxEl0mrH3Rq-18" value="Wrong" style="rounded=0;html=1;jettySize=auto;orthogonalLoop=1;fontSize=11;endArrow=block;endFill=0;endSize=8;strokeWidth=1;shadow=0;labelBackgroundColor=none;edgeStyle=orthogonalEdgeStyle;" parent="WIyWlLk6GJQsqaUBKTNV-1" source="XjMcyCBZsVxEl0mrH3Rq-20" target="XjMcyCBZsVxEl0mrH3Rq-21" edge="1">
          <mxGeometry y="-20" relative="1" as="geometry">
            <mxPoint as="offset" />
          </mxGeometry>
        </mxCell>
        <mxCell id="XjMcyCBZsVxEl0mrH3Rq-19" value="Correct" style="edgeStyle=orthogonalEdgeStyle;rounded=0;html=1;jettySize=auto;orthogonalLoop=1;fontSize=11;endArrow=block;endFill=0;endSize=8;strokeWidth=1;shadow=0;labelBackgroundColor=none;" parent="WIyWlLk6GJQsqaUBKTNV-1" source="XjMcyCBZsVxEl0mrH3Rq-20" target="XjMcyCBZsVxEl0mrH3Rq-22" edge="1">
          <mxGeometry x="0.1111" y="20" relative="1" as="geometry">
            <mxPoint as="offset" />
          </mxGeometry>
        </mxCell>
        <mxCell id="XjMcyCBZsVxEl0mrH3Rq-20" value="Question 10" style="rhombus;whiteSpace=wrap;html=1;shadow=0;fontFamily=Helvetica;fontSize=12;align=center;strokeWidth=1;spacing=6;spacingTop=-4;" parent="WIyWlLk6GJQsqaUBKTNV-1" vertex="1">
          <mxGeometry x="420" y="540" width="100" height="80" as="geometry" />
        </mxCell>
        <mxCell id="XjMcyCBZsVxEl0mrH3Rq-21" value="Incorrect" style="rounded=1;whiteSpace=wrap;html=1;fontSize=12;glass=0;strokeWidth=1;shadow=0;" parent="WIyWlLk6GJQsqaUBKTNV-1" vertex="1">
          <mxGeometry x="580" y="600" width="120" height="40" as="geometry" />
        </mxCell>
        <mxCell id="XjMcyCBZsVxEl0mrH3Rq-22" value="Congrats" style="rounded=1;whiteSpace=wrap;html=1;fontSize=12;glass=0;strokeWidth=1;shadow=0;" parent="WIyWlLk6GJQsqaUBKTNV-1" vertex="1">
          <mxGeometry x="580" y="530" width="120" height="40" as="geometry" />
        </mxCell>
        <mxCell id="XjMcyCBZsVxEl0mrH3Rq-23" value="Next" style="rounded=0;html=1;jettySize=auto;orthogonalLoop=1;fontSize=11;endArrow=block;endFill=0;endSize=8;strokeWidth=1;shadow=0;labelBackgroundColor=none;edgeStyle=orthogonalEdgeStyle;" parent="WIyWlLk6GJQsqaUBKTNV-1" edge="1">
          <mxGeometry y="20" relative="1" as="geometry">
            <mxPoint as="offset" />
            <mxPoint x="469.5" y="540" as="sourcePoint" />
            <mxPoint x="470" y="490" as="targetPoint" />
          </mxGeometry>
        </mxCell>
        <mxCell id="XjMcyCBZsVxEl0mrH3Rq-36" value="Do you&amp;nbsp; want to play again? Yes/ No" style="rounded=1;whiteSpace=wrap;html=1;" parent="WIyWlLk6GJQsqaUBKTNV-1" vertex="1">
          <mxGeometry x="410" y="410" width="120" height="60" as="geometry" />
        </mxCell>
        <mxCell id="XjMcyCBZsVxEl0mrH3Rq-40" value="&lt;font style=&quot;font-size: 8px;&quot;&gt;Possible Answers&lt;br style=&quot;font-size: 8px;&quot;&gt;A , B, C&lt;/font&gt;" style="text;strokeColor=none;align=center;fillColor=none;html=1;verticalAlign=middle;whiteSpace=wrap;rounded=0;fontStyle=0;fontSize=8;" parent="WIyWlLk6GJQsqaUBKTNV-1" vertex="1">
          <mxGeometry x="65" y="330" width="70" height="30" as="geometry" />
        </mxCell>
        <mxCell id="XjMcyCBZsVxEl0mrH3Rq-42" value="&lt;font style=&quot;font-size: 8px;&quot;&gt;Possible Answers&lt;br style=&quot;font-size: 8px;&quot;&gt;A , B, C&lt;/font&gt;" style="text;strokeColor=none;align=center;fillColor=none;html=1;verticalAlign=middle;whiteSpace=wrap;rounded=0;fontStyle=0;fontSize=8;" parent="WIyWlLk6GJQsqaUBKTNV-1" vertex="1">
          <mxGeometry x="65" y="450" width="70" height="30" as="geometry" />
        </mxCell>
        <mxCell id="XjMcyCBZsVxEl0mrH3Rq-43" value="&lt;font style=&quot;font-size: 8px;&quot;&gt;Possible Answers&lt;br style=&quot;font-size: 8px;&quot;&gt;A , B, C&lt;/font&gt;" style="text;strokeColor=none;align=center;fillColor=none;html=1;verticalAlign=middle;whiteSpace=wrap;rounded=0;fontStyle=0;fontSize=8;" parent="WIyWlLk6GJQsqaUBKTNV-1" vertex="1">
          <mxGeometry x="65" y="570" width="70" height="30" as="geometry" />
        </mxCell>
        <mxCell id="XjMcyCBZsVxEl0mrH3Rq-44" value="&lt;font style=&quot;font-size: 8px;&quot;&gt;Possible Answers&lt;br style=&quot;font-size: 8px;&quot;&gt;A , B, C&lt;/font&gt;" style="text;strokeColor=none;align=center;fillColor=none;html=1;verticalAlign=middle;whiteSpace=wrap;rounded=0;fontStyle=0;fontSize=8;" parent="WIyWlLk6GJQsqaUBKTNV-1" vertex="1">
          <mxGeometry x="65" y="690" width="70" height="30" as="geometry" />
        </mxCell>
        <mxCell id="XjMcyCBZsVxEl0mrH3Rq-45" value="&lt;font style=&quot;font-size: 8px;&quot;&gt;Possible Answers&lt;br style=&quot;font-size: 8px;&quot;&gt;A , B, C&lt;/font&gt;" style="text;strokeColor=none;align=center;fillColor=none;html=1;verticalAlign=middle;whiteSpace=wrap;rounded=0;fontStyle=0;fontSize=8;" parent="WIyWlLk6GJQsqaUBKTNV-1" vertex="1">
          <mxGeometry x="65" y="810" width="70" height="30" as="geometry" />
        </mxCell>
        <mxCell id="XjMcyCBZsVxEl0mrH3Rq-46" value="&lt;font style=&quot;font-size: 8px;&quot;&gt;Possible Answers&lt;br style=&quot;font-size: 8px;&quot;&gt;A , B, C&lt;/font&gt;" style="text;strokeColor=none;align=center;fillColor=none;html=1;verticalAlign=middle;whiteSpace=wrap;rounded=0;fontStyle=0;fontSize=8;" parent="WIyWlLk6GJQsqaUBKTNV-1" vertex="1">
          <mxGeometry x="65" y="930" width="70" height="30" as="geometry" />
        </mxCell>
        <mxCell id="XjMcyCBZsVxEl0mrH3Rq-47" value="&lt;font style=&quot;font-size: 8px;&quot;&gt;Possible Answers&lt;br style=&quot;font-size: 8px;&quot;&gt;A , B, C&lt;/font&gt;" style="text;strokeColor=none;align=center;fillColor=none;html=1;verticalAlign=middle;whiteSpace=wrap;rounded=0;fontStyle=0;fontSize=8;" parent="WIyWlLk6GJQsqaUBKTNV-1" vertex="1">
          <mxGeometry x="65" y="1050" width="70" height="30" as="geometry" />
        </mxCell>
        <mxCell id="XjMcyCBZsVxEl0mrH3Rq-48" value="&lt;font style=&quot;font-size: 8px;&quot;&gt;Possible Answers&lt;br style=&quot;font-size: 8px;&quot;&gt;A , B, C&lt;/font&gt;" style="text;strokeColor=none;align=center;fillColor=none;html=1;verticalAlign=middle;whiteSpace=wrap;rounded=0;fontStyle=0;fontSize=8;" parent="WIyWlLk6GJQsqaUBKTNV-1" vertex="1">
          <mxGeometry x="435" y="1100" width="70" height="30" as="geometry" />
        </mxCell>
        <mxCell id="XjMcyCBZsVxEl0mrH3Rq-49" value="&lt;font style=&quot;font-size: 8px;&quot;&gt;Possible Answers&lt;br style=&quot;font-size: 8px;&quot;&gt;A , B, C&lt;/font&gt;" style="text;strokeColor=none;align=center;fillColor=none;html=1;verticalAlign=middle;whiteSpace=wrap;rounded=0;fontStyle=0;fontSize=8;" parent="WIyWlLk6GJQsqaUBKTNV-1" vertex="1">
          <mxGeometry x="435" y="970" width="70" height="30" as="geometry" />
        </mxCell>
        <mxCell id="XjMcyCBZsVxEl0mrH3Rq-50" value="&lt;font style=&quot;font-size: 8px;&quot;&gt;Possible Answers&lt;br style=&quot;font-size: 8px;&quot;&gt;A , B, C&lt;/font&gt;" style="text;strokeColor=none;align=center;fillColor=none;html=1;verticalAlign=middle;whiteSpace=wrap;rounded=0;fontStyle=0;fontSize=8;" parent="WIyWlLk6GJQsqaUBKTNV-1" vertex="1">
          <mxGeometry x="435" y="840" width="70" height="30" as="geometry" />
        </mxCell>
        <mxCell id="XjMcyCBZsVxEl0mrH3Rq-51" value="&lt;font style=&quot;font-size: 8px;&quot;&gt;Possible Answers&lt;br style=&quot;font-size: 8px;&quot;&gt;A , B, C&lt;/font&gt;" style="text;strokeColor=none;align=center;fillColor=none;html=1;verticalAlign=middle;whiteSpace=wrap;rounded=0;fontStyle=0;fontSize=8;" parent="WIyWlLk6GJQsqaUBKTNV-1" vertex="1">
          <mxGeometry x="435" y="710" width="70" height="30" as="geometry" />
        </mxCell>
        <mxCell id="XjMcyCBZsVxEl0mrH3Rq-52" value="&lt;font style=&quot;font-size: 8px;&quot;&gt;Possible Answers&lt;br style=&quot;font-size: 8px;&quot;&gt;A , B, C&lt;/font&gt;" style="text;strokeColor=none;align=center;fillColor=none;html=1;verticalAlign=middle;whiteSpace=wrap;rounded=0;fontStyle=0;fontSize=8;" parent="WIyWlLk6GJQsqaUBKTNV-1" vertex="1">
          <mxGeometry x="435" y="580" width="70" height="30" as="geometry" />
        </mxCell>
        <mxCell id="2s5-wgkJ1ot9GbdPfiCJ-12" value="Wrong" style="rounded=0;html=1;jettySize=auto;orthogonalLoop=1;fontSize=11;endArrow=block;endFill=0;endSize=8;strokeWidth=1;shadow=0;labelBackgroundColor=none;edgeStyle=orthogonalEdgeStyle;entryX=0;entryY=0.5;entryDx=0;entryDy=0;" parent="WIyWlLk6GJQsqaUBKTNV-1" target="ALJSQyKVXg3JzVEoBNg6-58" edge="1">
          <mxGeometry y="-20" relative="1" as="geometry">
            <mxPoint as="offset" />
            <mxPoint x="519.5" y="1100" as="sourcePoint" />
            <mxPoint x="550" y="1140" as="targetPoint" />
          </mxGeometry>
        </mxCell>
        <mxCell id="2s5-wgkJ1ot9GbdPfiCJ-13" value="Correct" style="edgeStyle=orthogonalEdgeStyle;rounded=0;html=1;jettySize=auto;orthogonalLoop=1;fontSize=11;endArrow=block;endFill=0;endSize=8;strokeWidth=1;shadow=0;labelBackgroundColor=none;entryX=0;entryY=0.5;entryDx=0;entryDy=0;" parent="WIyWlLk6GJQsqaUBKTNV-1" target="ALJSQyKVXg3JzVEoBNg6-59" edge="1">
          <mxGeometry x="0.1111" y="20" relative="1" as="geometry">
            <mxPoint as="offset" />
            <mxPoint x="519.5" y="1100" as="sourcePoint" />
            <mxPoint x="540" y="1060" as="targetPoint" />
          </mxGeometry>
        </mxCell>
      </root>
    </mxGraphModel>
  </diagram>
</mxfile>
